# xmcd
#
# Track frame offsets:
#	150
#	16347
#	28972
#	48495
#	58938
#	74212
#	89840
#	102190
#	118853
#	132059
#
# Disc length: 1992 seconds
#
# Revision: 1
# Processed by: cddbd v1.5.2PL0 Copyright (c) Steve Scherf et al.
# Submitted via: audiograbber 1.83.01
#
DISCID=9907c60a
DTITLE=Various Artist - Forever Country Vol. 2
DYEAR=1900
DGENRE=Country
TTITLE0=Lynn Anderson - I Was Country When Country Wasen't Cool
TTITLE1=Ferlin Husky - Good Hearted Woman
TTITLE2=Donna Fargo - I Can't Stop Loving You
TTITLE3=Johnny Paycheck - Mamas Don't Let Your Babies Grow Up To Be Cowboys
TTITLE4=Melba Montgomery - Cold Cold Heart
TTITLE5=Jack Greene - Lucille
TTITLE6=Lynn Anderson - Stand By Your Man
TTITLE7=Faron Young - You Were Always On My Mind
TTITLE8=Stu Phillips - Please Help Me I'm Falling
TTITLE9=Nat Stuckey - Sunday Morning Comming Down
EXTD=
EXTT0=
EXTT1=
EXTT2=
EXTT3=
EXTT4=
EXTT5=
EXTT6=
EXTT7=
EXTT8=
EXTT9=
PLAYORDER=
